<svg xmlns="http://www.w3.org/2000/svg" width="1920" height="1080"><path d="M-136,-261L145,-247L318,-245Z" fill="#c63848" stroke="#c63848" stroke-width="1.51"/><path d="M-136,-261L318,-245L611,-246Z" fill="#cf4a47" stroke="#cf4a47" stroke-width="1.51"/><path d="M742,1304L412,1333L934,1314Z" fill="#b39a9c" stroke="#b39a9c" stroke-width="1.51"/><path d="M-136,-261L611,-246L1345,-249Z" fill="#d6785e" stroke="#d6785e" stroke-width="1.51"/><path d="M1030,1313L934,1314L1438,1332Z" fill="#a9a8a9" stroke="#a9a8a9" stroke-width="1.51"/><path d="M934,1314L412,1333L1438,1332Z" fill="#b1a8b3" stroke="#b1a8b3" stroke-width="1.51"/><path d="M-136,-261L1345,-249L1737,-256Z" fill="#d9937d" stroke="#d9937d" stroke-width="1.51"/><path d="M1345,-249L1670,-243L1737,-256Z" fill="#a78073" stroke="#a78073" stroke-width="1.51"/><path d="M1438,1332L412,1333L1805,1343Z" fill="#a5a3a4" stroke="#a5a3a4" stroke-width="1.51"/><path d="M1956,1279L1805,1343L2040,1280Z" fill="#4976b3" stroke="#4976b3" stroke-width="1.51"/><path d="M1922,-47L2034,111L2044,-97Z" fill="#ae6d7f" stroke="#ae6d7f" stroke-width="1.51"/><path d="M2033,372L1986,563L2055,577Z" fill="#aeb1b5" stroke="#aeb1b5" stroke-width="1.51"/><path d="M1737,-256L1976,-183L2057,-222Z" fill="#915f80" stroke="#915f80" stroke-width="1.51"/><path d="M2034,111L1973,230L2065,277Z" fill="#b48d8c" stroke="#b48d8c" stroke-width="1.51"/><path d="M2033,372L2055,577L2065,277Z" fill="#b1a5a5" stroke="#b1a5a5" stroke-width="1.51"/><path d="M2057,-222L2044,-97L2065,277Z" fill="#ae657c" stroke="#ae657c" stroke-width="1.51"/><path d="M2044,-97L2034,111L2065,277Z" fill="#b57680" stroke="#b57680" stroke-width="1.51"/><path d="M2055,577L1967,736L2081,741Z" fill="#a5afaa" stroke="#a5afaa" stroke-width="1.51"/><path d="M2065,277L2055,577L2081,741Z" fill="#afaeb6" stroke="#afaeb6" stroke-width="1.51"/><path d="M2081,741L1956,807L2097,889Z" fill="#90a6aa" stroke="#90a6aa" stroke-width="1.51"/><path d="M2060,1187L2040,1280L2119,946Z" fill="#5481b1" stroke="#5481b1" stroke-width="1.51"/><path d="M2057,-222L2065,277L2119,946Z" fill="#b39999" stroke="#b39999" stroke-width="1.51"/><path d="M2097,889L1939,1035L2119,946Z" fill="#739bab" stroke="#739bab" stroke-width="1.51"/><path d="M1939,1035L2060,1187L2119,946Z" fill="#5d93ad" stroke="#5d93ad" stroke-width="1.51"/><path d="M2081,741L2097,889L2119,946Z" fill="#8a9da8" stroke="#8a9da8" stroke-width="1.51"/><path d="M2065,277L2081,741L2119,946Z" fill="#a9a9aa" stroke="#a9a9aa" stroke-width="1.51"/><path d="M1906,435L1986,563L2033,372Z" fill="#adb3b1" stroke="#adb3b1" stroke-width="1.51"/><path d="M1976,-183L2044,-97L2057,-222Z" fill="#9c577d" stroke="#9c577d" stroke-width="1.51"/><path d="M1956,807L1939,1035L2097,889Z" fill="#79a5ad" stroke="#79a5ad" stroke-width="1.51"/><path d="M1986,563L1967,736L2055,577Z" fill="#a7b5b2" stroke="#a7b5b2" stroke-width="1.51"/><path d="M1939,1035L1925,1183L2060,1187Z" fill="#4a8cb6" stroke="#4a8cb6" stroke-width="1.51"/><path d="M1967,736L1956,807L2081,741Z" fill="#98afab" stroke="#98afab" stroke-width="1.51"/><path d="M1922,-47L1900,99L2034,111Z" fill="#b37c80" stroke="#b37c80" stroke-width="1.51"/><path d="M1956,1279L2040,1280L2060,1187Z" fill="#4a75b4" stroke="#4a75b4" stroke-width="1.51"/><path d="M1925,1183L1956,1279L2060,1187Z" fill="#3f7fb8" stroke="#3f7fb8" stroke-width="1.51"/><path d="M1973,230L2033,372L2065,277Z" fill="#b29997" stroke="#b29997" stroke-width="1.51"/><path d="M1820,940L1939,1035L1956,807Z" fill="#70afb1" stroke="#70afb1" stroke-width="1.51"/><path d="M1976,-183L1922,-47L2044,-97Z" fill="#a46481" stroke="#a46481" stroke-width="1.51"/><path d="M1973,230L1906,435L2033,372Z" fill="#afa8a0" stroke="#afa8a0" stroke-width="1.51"/><path d="M1900,99L1973,230L2034,111Z" fill="#b38a89" stroke="#b38a89" stroke-width="1.51"/><path d="M1788,286L1810,404L1906,435Z" fill="#b2bda2" stroke="#b2bda2" stroke-width="1.51"/><path d="M1800,866L1820,940L1956,807Z" fill="#80b9af" stroke="#80b9af" stroke-width="1.51"/><path d="M1788,286L1906,435L1973,230Z" fill="#b0ae9e" stroke="#b0ae9e" stroke-width="1.51"/><path d="M1906,435L1764,535L1986,563Z" fill="#abc3ba" stroke="#abc3ba" stroke-width="1.51"/><path d="M1764,535L1805,649L1986,563Z" fill="#aac9b8" stroke="#aac9b8" stroke-width="1.51"/><path d="M1805,649L1967,736L1986,563Z" fill="#a2beb4" stroke="#a2beb4" stroke-width="1.51"/><path d="M1826,1147L1925,1183L1939,1035Z" fill="#4898b7" stroke="#4898b7" stroke-width="1.51"/><path d="M1900,99L1840,99L1973,230Z" fill="#b3928a" stroke="#b3928a" stroke-width="1.51"/><path d="M1826,-35L1922,-47L1976,-183Z" fill="#a77183" stroke="#a77183" stroke-width="1.51"/><path d="M1737,-256L1826,-35L1976,-183Z" fill="#a1707f" stroke="#a1707f" stroke-width="1.51"/><path d="M1840,99L1788,286L1973,230Z" fill="#b5a18e" stroke="#b5a18e" stroke-width="1.51"/><path d="M1805,649L1956,807L1967,736Z" fill="#99bcae" stroke="#99bcae" stroke-width="1.51"/><path d="M1345,-249L1513,-215L1670,-243Z" fill="#b18473" stroke="#b18473" stroke-width="1.51"/><path d="M1826,-35L1900,99L1922,-47Z" fill="#b27e80" stroke="#b27e80" stroke-width="1.51"/><path d="M1925,1183L1805,1343L1956,1279Z" fill="#4580b7" stroke="#4580b7" stroke-width="1.51"/><path d="M1805,649L1800,866L1956,807Z" fill="#94c0ac" stroke="#94c0ac" stroke-width="1.51"/><path d="M1826,-35L1840,99L1900,99Z" fill="#b7887f" stroke="#b7887f" stroke-width="1.51"/><path d="M1826,1147L1805,1343L1925,1183Z" fill="#438cb8" stroke="#438cb8" stroke-width="1.51"/><path d="M1820,940L1826,1147L1939,1035Z" fill="#58abaf" stroke="#58abaf" stroke-width="1.51"/><path d="M1810,404L1764,535L1906,435Z" fill="#b0c6ae" stroke="#b0c6ae" stroke-width="1.51"/><path d="M611,-246L1041,-173L1345,-249Z" fill="#de967d" stroke="#de967d" stroke-width="1.51"/><path d="M1657,1271L1438,1332L1805,1343Z" fill="#6c93a9" stroke="#6c93a9" stroke-width="1.51"/><path d="M1683,788L1800,866L1805,649Z" fill="#9bcca7" stroke="#9bcca7" stroke-width="1.51"/><path d="M1737,-256L1649,-72L1826,-35Z" fill="#af837b" stroke="#af837b" stroke-width="1.51"/><path d="M1649,-72L1646,145L1826,-35Z" fill="#bd9676" stroke="#bd9676" stroke-width="1.51"/><path d="M1820,940L1681,957L1826,1147Z" fill="#65b7aa" stroke="#65b7aa" stroke-width="1.51"/><path d="M1681,957L1613,1083L1826,1147Z" fill="#62b9a9" stroke="#62b9a9" stroke-width="1.51"/><path d="M1657,1271L1805,1343L1826,1147Z" fill="#5492b1" stroke="#5492b1" stroke-width="1.51"/><path d="M1826,-35L1646,145L1840,99Z" fill="#bc967b" stroke="#bc967b" stroke-width="1.51"/><path d="M1646,145L1788,286L1840,99Z" fill="#bcab85" stroke="#bcab85" stroke-width="1.51"/><path d="M1670,-243L1649,-72L1737,-256Z" fill="#a68176" stroke="#a68176" stroke-width="1.51"/><path d="M1646,145L1627,210L1788,286Z" fill="#bfb985" stroke="#bfb985" stroke-width="1.51"/><path d="M1613,1083L1657,1271L1826,1147Z" fill="#56a8b0" stroke="#56a8b0" stroke-width="1.51"/><path d="M1800,866L1681,957L1820,940Z" fill="#7bc1a9" stroke="#7bc1a9" stroke-width="1.51"/><path d="M1608,658L1683,788L1805,649Z" fill="#abd9a1" stroke="#abd9a1" stroke-width="1.51"/><path d="M1788,286L1625,439L1810,404Z" fill="#b7ca9d" stroke="#b7ca9d" stroke-width="1.51"/><path d="M1625,439L1764,535L1810,404Z" fill="#b6d2a9" stroke="#b6d2a9" stroke-width="1.51"/><path d="M1764,535L1608,658L1805,649Z" fill="#b0d9ad" stroke="#b0d9ad" stroke-width="1.51"/><path d="M1683,788L1681,957L1800,866Z" fill="#88caa7" stroke="#88caa7" stroke-width="1.51"/><path d="M1627,210L1625,439L1788,286Z" fill="#bdc991" stroke="#bdc991" stroke-width="1.51"/><path d="M1625,439L1599,485L1764,535Z" fill="#bbddaa" stroke="#bbddaa" stroke-width="1.51"/><path d="M1599,485L1608,658L1764,535Z" fill="#b9e2b0" stroke="#b9e2b0" stroke-width="1.51"/><path d="M1347,1300L1030,1313L1438,1332Z" fill="#9da5a6" stroke="#9da5a6" stroke-width="1.51"/><path d="M1537,101L1646,145L1649,-72Z" fill="#c9a474" stroke="#c9a474" stroke-width="1.51"/><path d="M1439,399L1625,439L1627,210Z" fill="#c9d495" stroke="#c9d495" stroke-width="1.51"/><path d="M1513,-215L1649,-72L1670,-243Z" fill="#b18776" stroke="#b18776" stroke-width="1.51"/><path d="M1507,963L1613,1083L1681,957Z" fill="#7bcaa5" stroke="#7bcaa5" stroke-width="1.51"/><path d="M1516,791L1507,963L1681,957Z" fill="#94d3a5" stroke="#94d3a5" stroke-width="1.51"/><path d="M1516,791L1681,957L1683,788Z" fill="#97d4a4" stroke="#97d4a4" stroke-width="1.51"/><path d="M1608,658L1516,791L1683,788Z" fill="#aedda0" stroke="#aedda0" stroke-width="1.51"/><path d="M1613,1083L1488,1085L1657,1271Z" fill="#6ab3ae" stroke="#6ab3ae" stroke-width="1.51"/><path d="M1599,485L1472,586L1608,658Z" fill="#c4e7ae" stroke="#c4e7ae" stroke-width="1.51"/><path d="M1461,186L1439,399L1627,210Z" fill="#d2cb8a" stroke="#d2cb8a" stroke-width="1.51"/><path d="M1450,-73L1537,101L1649,-72Z" fill="#ca9d75" stroke="#ca9d75" stroke-width="1.51"/><path d="M1513,-215L1450,-73L1649,-72Z" fill="#c29178" stroke="#c29178" stroke-width="1.51"/><path d="M1488,1085L1438,1332L1657,1271Z" fill="#72a7af" stroke="#72a7af" stroke-width="1.51"/><path d="M1537,101L1627,210L1646,145Z" fill="#c9b47e" stroke="#c9b47e" stroke-width="1.51"/><path d="M1197,1276L1030,1313L1347,1300Z" fill="#a5aba7" stroke="#a5aba7" stroke-width="1.51"/><path d="M1472,586L1489,648L1608,658Z" fill="#c4e7a7" stroke="#c4e7a7" stroke-width="1.51"/><path d="M1489,648L1516,791L1608,658Z" fill="#bee39f" stroke="#bee39f" stroke-width="1.51"/><path d="M1507,963L1488,1085L1613,1083Z" fill="#7cc8a6" stroke="#7cc8a6" stroke-width="1.51"/><path d="M1439,399L1599,485L1625,439Z" fill="#c9dea3" stroke="#c9dea3" stroke-width="1.51"/><path d="M1537,101L1461,186L1627,210Z" fill="#d0ba7f" stroke="#d0ba7f" stroke-width="1.51"/><path d="M1439,399L1472,586L1599,485Z" fill="#cee6aa" stroke="#cee6aa" stroke-width="1.51"/><path d="M1347,1300L1438,1332L1488,1085Z" fill="#82abaf" stroke="#82abaf" stroke-width="1.51"/><path d="M1289,1191L1347,1300L1488,1085Z" fill="#86b6b0" stroke="#86b6b0" stroke-width="1.51"/><path d="M1321,835L1507,963L1516,791Z" fill="#acdda4" stroke="#acdda4" stroke-width="1.51"/><path d="M1328,86L1461,186L1537,101Z" fill="#dab87a" stroke="#dab87a" stroke-width="1.51"/><path d="M1450,-73L1328,86L1537,101Z" fill="#daa973" stroke="#daa973" stroke-width="1.51"/><path d="M611,-246L901,-161L1041,-173Z" fill="#e39476" stroke="#e39476" stroke-width="1.51"/><path d="M1300,222L1439,399L1461,186Z" fill="#ded189" stroke="#ded189" stroke-width="1.51"/><path d="M1330,981L1488,1085L1507,963Z" fill="#90d1a5" stroke="#90d1a5" stroke-width="1.51"/><path d="M1321,835L1330,981L1507,963Z" fill="#a7dba3" stroke="#a7dba3" stroke-width="1.51"/><path d="M1345,-249L1450,-73L1513,-215Z" fill="#c28f75" stroke="#c28f75" stroke-width="1.51"/><path d="M1489,648L1320,643L1516,791Z" fill="#cae9a0" stroke="#cae9a0" stroke-width="1.51"/><path d="M1320,643L1321,835L1516,791Z" fill="#c7e89f" stroke="#c7e89f" stroke-width="1.51"/><path d="M1439,399L1312,551L1472,586Z" fill="#daedac" stroke="#daedac" stroke-width="1.51"/><path d="M1345,-249L1308,-103L1450,-73Z" fill="#d09775" stroke="#d09775" stroke-width="1.51"/><path d="M1472,586L1320,643L1489,648Z" fill="#d1eca7" stroke="#d1eca7" stroke-width="1.51"/><path d="M1330,981L1289,1191L1488,1085Z" fill="#91caa8" stroke="#91caa8" stroke-width="1.51"/><path d="M1293,427L1312,551L1439,399Z" fill="#e1eba2" stroke="#e1eba2" stroke-width="1.51"/><path d="M1312,551L1320,643L1472,586Z" fill="#daf0a9" stroke="#daf0a9" stroke-width="1.51"/><path d="M1300,222L1293,427L1439,399Z" fill="#e2e092" stroke="#e2e092" stroke-width="1.51"/><path d="M1308,-103L1328,86L1450,-73Z" fill="#dca473" stroke="#dca473" stroke-width="1.51"/><path d="M1328,86L1300,222L1461,186Z" fill="#e3c37c" stroke="#e3c37c" stroke-width="1.51"/><path d="M1237,1130L1289,1191L1330,981Z" fill="#9bcaa7" stroke="#9bcaa7" stroke-width="1.51"/><path d="M1201,403L1293,427L1300,222Z" fill="#ece490" stroke="#ece490" stroke-width="1.51"/><path d="M1320,643L1231,638L1321,835Z" fill="#dbf09b" stroke="#dbf09b" stroke-width="1.51"/><path d="M1231,638L1164,848L1321,835Z" fill="#d6ee9c" stroke="#d6ee9c" stroke-width="1.51"/><path d="M1308,-103L1209,43L1328,86Z" fill="#e8ac6f" stroke="#e8ac6f" stroke-width="1.51"/><path d="M1321,835L1164,848L1330,981Z" fill="#bde4a0" stroke="#bde4a0" stroke-width="1.51"/><path d="M1041,-173L1232,-165L1345,-249Z" fill="#d8966f" stroke="#d8966f" stroke-width="1.51"/><path d="M1232,-165L1308,-103L1345,-249Z" fill="#d29672" stroke="#d29672" stroke-width="1.51"/><path d="M1289,1191L1197,1276L1347,1300Z" fill="#98afab" stroke="#98afab" stroke-width="1.51"/><path d="M1170,-47L1209,43L1308,-103Z" fill="#e9a970" stroke="#e9a970" stroke-width="1.51"/><path d="M1173,184L1300,222L1328,86Z" fill="#edc779" stroke="#edc779" stroke-width="1.51"/><path d="M1293,427L1187,526L1312,551Z" fill="#ebf4a7" stroke="#ebf4a7" stroke-width="1.51"/><path d="M1312,551L1231,638L1320,643Z" fill="#e3f4a5" stroke="#e3f4a5" stroke-width="1.51"/><path d="M1209,43L1173,184L1328,86Z" fill="#f0bd72" stroke="#f0bd72" stroke-width="1.51"/><path d="M1140,978L1237,1130L1330,981Z" fill="#a8daa0" stroke="#a8daa0" stroke-width="1.51"/><path d="M1164,848L1140,978L1330,981Z" fill="#bce39f" stroke="#bce39f" stroke-width="1.51"/><path d="M1173,184L1201,403L1300,222Z" fill="#f1da84" stroke="#f1da84" stroke-width="1.51"/><path d="M1187,526L1231,638L1312,551Z" fill="#ebf7a9" stroke="#ebf7a9" stroke-width="1.51"/><path d="M1232,-165L1170,-47L1308,-103Z" fill="#e2a172" stroke="#e2a172" stroke-width="1.51"/><path d="M1201,403L1187,526L1293,427Z" fill="#f0f09e" stroke="#f0f09e" stroke-width="1.51"/><path d="M1237,1130L1197,1276L1289,1191Z" fill="#98bbae" stroke="#98bbae" stroke-width="1.51"/><path d="M1173,184L1074,363L1201,403Z" fill="#f6e38e" stroke="#f6e38e" stroke-width="1.51"/><path d="M1030,726L1164,848L1231,638Z" fill="#e4f49e" stroke="#e4f49e" stroke-width="1.51"/><path d="M1080,1142L1197,1276L1237,1130Z" fill="#a1c0af" stroke="#a1c0af" stroke-width="1.51"/><path d="M1140,978L1080,1142L1237,1130Z" fill="#aad3a8" stroke="#aad3a8" stroke-width="1.51"/><path d="M1187,526L1089,508L1231,638Z" fill="#f3faac" stroke="#f3faac" stroke-width="1.51"/><path d="M1041,-173L1170,-47L1232,-165Z" fill="#e6a076" stroke="#e6a076" stroke-width="1.51"/><path d="M1079,41L1173,184L1209,43Z" fill="#f7bd74" stroke="#f7bd74" stroke-width="1.51"/><path d="M1089,508L1030,726L1231,638Z" fill="#f1f9a8" stroke="#f1f9a8" stroke-width="1.51"/><path d="M1020,279L1074,363L1173,184Z" fill="#fade8d" stroke="#fade8d" stroke-width="1.51"/><path d="M1089,508L1187,526L1201,403Z" fill="#f5f5a6" stroke="#f5f5a6" stroke-width="1.51"/><path d="M1170,-47L1079,41L1209,43Z" fill="#f3b171" stroke="#f3b171" stroke-width="1.51"/><path d="M1038,1029L1080,1142L1140,978Z" fill="#b0dbaa" stroke="#b0dbaa" stroke-width="1.51"/><path d="M1080,1142L1030,1313L1197,1276Z" fill="#a5b6b2" stroke="#a5b6b2" stroke-width="1.51"/><path d="M1074,363L1089,508L1201,403Z" fill="#f7f1a0" stroke="#f7f1a0" stroke-width="1.51"/><path d="M1021,840L1140,978L1164,848Z" fill="#cbeaa6" stroke="#cbeaa6" stroke-width="1.51"/><path d="M1030,726L1021,840L1164,848Z" fill="#dbf0a6" stroke="#dbf0a6" stroke-width="1.51"/><path d="M1041,-173L985,-103L1170,-47Z" fill="#eda47c" stroke="#eda47c" stroke-width="1.51"/><path d="M1079,41L1020,279L1173,184Z" fill="#facd81" stroke="#facd81" stroke-width="1.51"/><path d="M985,-103L1079,41L1170,-47Z" fill="#f3ac79" stroke="#f3ac79" stroke-width="1.51"/><path d="M1021,840L1038,1029L1140,978Z" fill="#c2e6aa" stroke="#c2e6aa" stroke-width="1.51"/><path d="M611,-246L698,-183L901,-161Z" fill="#e08c6b" stroke="#e08c6b" stroke-width="1.51"/><path d="M921,-6L862,39L1079,41Z" fill="#feb57f" stroke="#feb57f" stroke-width="1.51"/><path d="M862,39L893,231L1079,41Z" fill="#ffc283" stroke="#ffc283" stroke-width="1.51"/><path d="M985,-103L921,-6L1079,41Z" fill="#f8b07f" stroke="#f8b07f" stroke-width="1.51"/><path d="M893,231L1020,279L1079,41Z" fill="#ffd18a" stroke="#ffd18a" stroke-width="1.51"/><path d="M891,1187L1030,1313L1080,1142Z" fill="#a8bebc" stroke="#a8bebc" stroke-width="1.51"/><path d="M1074,363L829,389L1089,508Z" fill="#fdf2a9" stroke="#fdf2a9" stroke-width="1.51"/><path d="M829,389L854,569L1089,508Z" fill="#fff7b3" stroke="#fff7b3" stroke-width="1.51"/><path d="M854,569L1030,726L1089,508Z" fill="#f9fdb5" stroke="#f9fdb5" stroke-width="1.51"/><path d="M1038,1029L891,1187L1080,1142Z" fill="#aed0b6" stroke="#aed0b6" stroke-width="1.51"/><path d="M891,1187L934,1314L1030,1313Z" fill="#adb4b9" stroke="#adb4b9" stroke-width="1.51"/><path d="M1021,840L894,1034L1038,1029Z" fill="#c3e6b0" stroke="#c3e6b0" stroke-width="1.51"/><path d="M894,1034L891,1187L1038,1029Z" fill="#b4d7b5" stroke="#b4d7b5" stroke-width="1.51"/><path d="M1020,279L829,389L1074,363Z" fill="#ffeaa0" stroke="#ffeaa0" stroke-width="1.51"/><path d="M855,867L894,1034L1021,840Z" fill="#cee8ad" stroke="#cee8ad" stroke-width="1.51"/><path d="M854,569L829,682L1030,726Z" fill="#f6f8ab" stroke="#f6f8ab" stroke-width="1.51"/><path d="M901,-161L985,-103L1041,-173Z" fill="#eba082" stroke="#eba082" stroke-width="1.51"/><path d="M855,867L1021,840L1030,726Z" fill="#e0f3af" stroke="#e0f3af" stroke-width="1.51"/><path d="M893,231L829,389L1020,279Z" fill="#ffe196" stroke="#ffe196" stroke-width="1.51"/><path d="M829,682L855,867L1030,726Z" fill="#eaf3a7" stroke="#eaf3a7" stroke-width="1.51"/><path d="M901,-161L921,-6L985,-103Z" fill="#f4a681" stroke="#f4a681" stroke-width="1.51"/><path d="M777,278L829,389L893,231Z" fill="#ffdc8d" stroke="#ffdc8d" stroke-width="1.51"/><path d="M862,39L777,139L893,231Z" fill="#ffc27c" stroke="#ffc27c" stroke-width="1.51"/><path d="M855,867L762,947L894,1034Z" fill="#c9e0a5" stroke="#c9e0a5" stroke-width="1.51"/><path d="M759,1108L891,1187L894,1034Z" fill="#b3cbad" stroke="#b3cbad" stroke-width="1.51"/><path d="M901,-161L755,-58L921,-6Z" fill="#f4a379" stroke="#f4a379" stroke-width="1.51"/><path d="M891,1187L742,1304L934,1314Z" fill="#afaeb0" stroke="#afaeb0" stroke-width="1.51"/><path d="M755,-58L862,39L921,-6Z" fill="#faaa75" stroke="#faaa75" stroke-width="1.51"/><path d="M829,389L721,440L854,569Z" fill="#ffeda2" stroke="#ffeda2" stroke-width="1.51"/><path d="M829,682L706,741L855,867Z" fill="#e9eb9c" stroke="#e9eb9c" stroke-width="1.51"/><path d="M698,-183L755,-58L901,-161Z" fill="#ec9772" stroke="#ec9772" stroke-width="1.51"/><path d="M721,440L748,566L854,569Z" fill="#fff1a8" stroke="#fff1a8" stroke-width="1.51"/><path d="M777,139L777,278L893,231Z" fill="#ffce81" stroke="#ffce81" stroke-width="1.51"/><path d="M762,947L759,1108L894,1034Z" fill="#bbd7a2" stroke="#bbd7a2" stroke-width="1.51"/><path d="M759,1108L742,1304L891,1187Z" fill="#abb7af" stroke="#abb7af" stroke-width="1.51"/><path d="M748,566L829,682L854,569Z" fill="#faf4a7" stroke="#faf4a7" stroke-width="1.51"/><path d="M706,741L687,803L855,867Z" fill="#e2e698" stroke="#e2e698" stroke-width="1.51"/><path d="M755,-58L777,139L862,39Z" fill="#fdad6e" stroke="#fdad6e" stroke-width="1.51"/><path d="M687,803L762,947L855,867Z" fill="#d7e29d" stroke="#d7e29d" stroke-width="1.51"/><path d="M748,566L706,741L829,682Z" fill="#f6ef9b" stroke="#f6ef9b" stroke-width="1.51"/><path d="M777,278L721,440L829,389Z" fill="#ffe290" stroke="#ffe290" stroke-width="1.51"/><path d="M622,1237L412,1333L742,1304Z" fill="#b39595" stroke="#b39595" stroke-width="1.51"/><path d="M574,590L706,741L748,566Z" fill="#f8e896" stroke="#f8e896" stroke-width="1.51"/><path d="M542,-46L623,142L755,-58Z" fill="#f89c61" stroke="#f89c61" stroke-width="1.51"/><path d="M622,1237L742,1304L759,1108Z" fill="#aeaea5" stroke="#aeaea5" stroke-width="1.51"/><path d="M588,1091L759,1108L762,947Z" fill="#bacd98" stroke="#bacd98" stroke-width="1.51"/><path d="M568,352L721,440L777,278Z" fill="#feda86" stroke="#feda86" stroke-width="1.51"/><path d="M639,205L568,352L777,278Z" fill="#fecc79" stroke="#fecc79" stroke-width="1.51"/><path d="M755,-58L623,142L777,139Z" fill="#fdae69" stroke="#fdae69" stroke-width="1.51"/><path d="M639,205L777,278L777,139Z" fill="#fec776" stroke="#fec776" stroke-width="1.51"/><path d="M623,142L639,205L777,139Z" fill="#feba6e" stroke="#feba6e" stroke-width="1.51"/><path d="M588,1091L622,1237L759,1108Z" fill="#b3b79d" stroke="#b3b79d" stroke-width="1.51"/><path d="M534,961L588,1091L762,947Z" fill="#c3cc91" stroke="#c3cc91" stroke-width="1.51"/><path d="M578,872L534,961L762,947Z" fill="#cfd18f" stroke="#cfd18f" stroke-width="1.51"/><path d="M687,803L578,872L762,947Z" fill="#d7da94" stroke="#d7da94" stroke-width="1.51"/><path d="M721,440L574,590L748,566Z" fill="#ffeaa0" stroke="#ffeaa0" stroke-width="1.51"/><path d="M698,-183L542,-46L755,-58Z" fill="#ef9267" stroke="#ef9267" stroke-width="1.51"/><path d="M574,590L548,697L706,741Z" fill="#f5e08b" stroke="#f5e08b" stroke-width="1.51"/><path d="M568,352L574,590L721,440Z" fill="#ffde8f" stroke="#ffde8f" stroke-width="1.51"/><path d="M318,-245L408,-204L611,-246Z" fill="#d76752" stroke="#d76752" stroke-width="1.51"/><path d="M611,-246L542,-46L698,-183Z" fill="#e58562" stroke="#e58562" stroke-width="1.51"/><path d="M548,697L687,803L706,741Z" fill="#ece08c" stroke="#ece08c" stroke-width="1.51"/><path d="M548,697L578,872L687,803Z" fill="#e6d98a" stroke="#e6d98a" stroke-width="1.51"/><path d="M568,352L474,583L574,590Z" fill="#ffda90" stroke="#ffda90" stroke-width="1.51"/><path d="M408,-204L542,-46L611,-246Z" fill="#e4795a" stroke="#e4795a" stroke-width="1.51"/><path d="M588,1091L490,1094L622,1237Z" fill="#b5ae95" stroke="#b5ae95" stroke-width="1.51"/><path d="M542,-46L436,132L623,142Z" fill="#fb9a59" stroke="#fb9a59" stroke-width="1.51"/><path d="M394,256L568,352L639,205Z" fill="#febd6d" stroke="#febd6d" stroke-width="1.51"/><path d="M436,132L394,256L639,205Z" fill="#fdad61" stroke="#fdad61" stroke-width="1.51"/><path d="M623,142L436,132L639,205Z" fill="#fdae64" stroke="#fdae64" stroke-width="1.51"/><path d="M403,395L474,583L568,352Z" fill="#ffce80" stroke="#ffce80" stroke-width="1.51"/><path d="M548,697L477,844L578,872Z" fill="#e4d184" stroke="#e4d184" stroke-width="1.51"/><path d="M490,1094L412,1333L622,1237Z" fill="#b29a93" stroke="#b29a93" stroke-width="1.51"/><path d="M534,961L490,1094L588,1091Z" fill="#bebd8a" stroke="#bebd8a" stroke-width="1.51"/><path d="M408,-204L442,-43L542,-46Z" fill="#ec7b57" stroke="#ec7b57" stroke-width="1.51"/><path d="M442,-43L436,132L542,-46Z" fill="#f68a53" stroke="#f68a53" stroke-width="1.51"/><path d="M468,710L477,844L548,697Z" fill="#edd180" stroke="#edd180" stroke-width="1.51"/><path d="M474,583L548,697L574,590Z" fill="#fada8a" stroke="#fada8a" stroke-width="1.51"/><path d="M477,844L534,961L578,872Z" fill="#d6ca87" stroke="#d6ca87" stroke-width="1.51"/><path d="M474,583L468,710L548,697Z" fill="#f7d583" stroke="#f7d583" stroke-width="1.51"/><path d="M394,256L403,395L568,352Z" fill="#febe6f" stroke="#febe6f" stroke-width="1.51"/><path d="M331,1123L412,1333L490,1094Z" fill="#b4968c" stroke="#b4968c" stroke-width="1.51"/><path d="M406,1019L490,1094L534,961Z" fill="#c1bb84" stroke="#c1bb84" stroke-width="1.51"/><path d="M477,844L406,1019L534,961Z" fill="#cfc083" stroke="#cfc083" stroke-width="1.51"/><path d="M331,1123L281,1236L412,1333Z" fill="#b38586" stroke="#b38586" stroke-width="1.51"/><path d="M269,696L256,855L468,710Z" fill="#edbd74" stroke="#edbd74" stroke-width="1.51"/><path d="M299,568L468,710L474,583Z" fill="#fbcc81" stroke="#fbcc81" stroke-width="1.51"/><path d="M403,395L299,568L474,583Z" fill="#ffc986" stroke="#ffc986" stroke-width="1.51"/><path d="M305,969L406,1019L477,844Z" fill="#cfb77d" stroke="#cfb77d" stroke-width="1.51"/><path d="M468,710L256,855L477,844Z" fill="#e5c27a" stroke="#e5c27a" stroke-width="1.51"/><path d="M406,1019L331,1123L490,1094Z" fill="#bda983" stroke="#bda983" stroke-width="1.51"/><path d="M325,406L299,568L403,395Z" fill="#ffbd79" stroke="#ffbd79" stroke-width="1.51"/><path d="M247,60L436,132L442,-43Z" fill="#f7814c" stroke="#f7814c" stroke-width="1.51"/><path d="M299,568L269,696L468,710Z" fill="#f8c378" stroke="#f8c378" stroke-width="1.51"/><path d="M256,855L305,969L477,844Z" fill="#d8b579" stroke="#d8b579" stroke-width="1.51"/><path d="M274,233L394,256L436,132Z" fill="#fc9f59" stroke="#fc9f59" stroke-width="1.51"/><path d="M408,-204L255,-81L442,-43Z" fill="#e96c51" stroke="#e96c51" stroke-width="1.51"/><path d="M255,-81L247,60L442,-43Z" fill="#f06f4b" stroke="#f06f4b" stroke-width="1.51"/><path d="M394,256L325,406L403,395Z" fill="#fdb66c" stroke="#fdb66c" stroke-width="1.51"/><path d="M247,60L274,233L436,132Z" fill="#f98c50" stroke="#f98c50" stroke-width="1.51"/><path d="M274,233L325,406L394,256Z" fill="#fca962" stroke="#fca962" stroke-width="1.51"/><path d="M318,-245L255,-81L408,-204Z" fill="#dd5d4d" stroke="#dd5d4d" stroke-width="1.51"/><path d="M281,1236L103,1307L412,1333Z" fill="#b46f7c" stroke="#b46f7c" stroke-width="1.51"/><path d="M305,969L331,1123L406,1019Z" fill="#c1aa7b" stroke="#c1aa7b" stroke-width="1.51"/><path d="M179,786L256,855L269,696Z" fill="#e8af6f" stroke="#e8af6f" stroke-width="1.51"/><path d="M145,-247L255,-81L318,-245Z" fill="#d94d48" stroke="#d94d48" stroke-width="1.51"/><path d="M274,233L175,236L325,406Z" fill="#fb9e5d" stroke="#fb9e5d" stroke-width="1.51"/><path d="M175,236L89,343L325,406Z" fill="#f99e62" stroke="#f99e62" stroke-width="1.51"/><path d="M157,570L299,568L325,406Z" fill="#ffb87c" stroke="#ffb87c" stroke-width="1.51"/><path d="M190,1120L281,1236L331,1123Z" fill="#b68980" stroke="#b68980" stroke-width="1.51"/><path d="M305,969L191,1017L331,1123Z" fill="#c1a276" stroke="#c1a276" stroke-width="1.51"/><path d="M191,1017L190,1120L331,1123Z" fill="#bd9378" stroke="#bd9378" stroke-width="1.51"/><path d="M89,343L157,570L325,406Z" fill="#fbab71" stroke="#fbab71" stroke-width="1.51"/><path d="M135,100L175,236L247,60Z" fill="#f47a4c" stroke="#f47a4c" stroke-width="1.51"/><path d="M145,-247L147,-99L255,-81Z" fill="#dd4e4a" stroke="#dd4e4a" stroke-width="1.51"/><path d="M247,60L175,236L274,233Z" fill="#f8874f" stroke="#f8874f" stroke-width="1.51"/><path d="M157,570L269,696L299,568Z" fill="#fbb777" stroke="#fbb777" stroke-width="1.51"/><path d="M256,855L191,1017L305,969Z" fill="#cfa574" stroke="#cfa574" stroke-width="1.51"/><path d="M147,-99L247,60L255,-81Z" fill="#eb6047" stroke="#eb6047" stroke-width="1.51"/><path d="M190,1120L103,1307L281,1236Z" fill="#b07681" stroke="#b07681" stroke-width="1.51"/><path d="M81,718L179,786L269,696Z" fill="#ecad6f" stroke="#ecad6f" stroke-width="1.51"/><path d="M157,570L81,718L269,696Z" fill="#f3b073" stroke="#f3b073" stroke-width="1.51"/><path d="M179,786L23,960L191,1017Z" fill="#cc9d75" stroke="#cc9d75" stroke-width="1.51"/><path d="M147,-99L135,100L247,60Z" fill="#ee6446" stroke="#ee6446" stroke-width="1.51"/><path d="M179,786L191,1017L256,855Z" fill="#d6a673" stroke="#d6a673" stroke-width="1.51"/><path d="M-27,-13L135,100L147,-99Z" fill="#e65849" stroke="#e65849" stroke-width="1.51"/><path d="M89,343L6,414L157,570Z" fill="#f4a274" stroke="#f4a274" stroke-width="1.51"/><path d="M135,100L18,211L175,236Z" fill="#f07e53" stroke="#f07e53" stroke-width="1.51"/><path d="M-35,804L23,960L179,786Z" fill="#d39c76" stroke="#d39c76" stroke-width="1.51"/><path d="M10,1171L103,1307L190,1120Z" fill="#a97383" stroke="#a97383" stroke-width="1.51"/><path d="M23,960L10,1171L190,1120Z" fill="#b3877b" stroke="#b3877b" stroke-width="1.51"/><path d="M23,960L190,1120L191,1017Z" fill="#bb9576" stroke="#bb9576" stroke-width="1.51"/><path d="M81,718L-35,804L179,786Z" fill="#e0a373" stroke="#e0a373" stroke-width="1.51"/><path d="M18,211L89,343L175,236Z" fill="#f18a5c" stroke="#f18a5c" stroke-width="1.51"/><path d="M145,-247L-68,-168L147,-99Z" fill="#d13f4c" stroke="#d13f4c" stroke-width="1.51"/><path d="M-50,553L81,718L157,570Z" fill="#f0a87b" stroke="#f0a87b" stroke-width="1.51"/><path d="M6,414L-50,553L157,570Z" fill="#f3a57f" stroke="#f3a57f" stroke-width="1.51"/><path d="M-27,-13L-32,108L135,100Z" fill="#e75e4b" stroke="#e75e4b" stroke-width="1.51"/><path d="M-136,-261L-68,-168L145,-247Z" fill="#c12d4b" stroke="#c12d4b" stroke-width="1.51"/><path d="M-68,-168L-27,-13L147,-99Z" fill="#d9444e" stroke="#d9444e" stroke-width="1.51"/><path d="M-32,108L18,211L135,100Z" fill="#ea6f51" stroke="#ea6f51" stroke-width="1.51"/><path d="M-50,553L-43,709L81,718Z" fill="#e8a177" stroke="#e8a177" stroke-width="1.51"/><path d="M10,1171L-34,1293L103,1307Z" fill="#a56280" stroke="#a56280" stroke-width="1.51"/><path d="M-43,709L-35,804L81,718Z" fill="#df9e74" stroke="#df9e74" stroke-width="1.51"/><path d="M18,211L6,414L89,343Z" fill="#ef8f65" stroke="#ef8f65" stroke-width="1.51"/><path d="M-140,1103L10,1171L23,960Z" fill="#ab7f7b" stroke="#ab7f7b" stroke-width="1.51"/><path d="M-131,253L-135,371L6,414Z" fill="#e38866" stroke="#e38866" stroke-width="1.51"/><path d="M-131,253L6,414L18,211Z" fill="#e88461" stroke="#e88461" stroke-width="1.51"/><path d="M-191,1012L-140,1103L23,960Z" fill="#a88375" stroke="#a88375" stroke-width="1.51"/><path d="M-168,886L-191,1012L23,960Z" fill="#b28775" stroke="#b28775" stroke-width="1.51"/><path d="M-35,804L-168,886L23,960Z" fill="#c39076" stroke="#c39076" stroke-width="1.51"/><path d="M-50,553L-131,666L-43,709Z" fill="#e19b77" stroke="#e19b77" stroke-width="1.51"/><path d="M-32,108L-131,253L18,211Z" fill="#e47255" stroke="#e47255" stroke-width="1.51"/><path d="M-68,-168L-153,-103L-27,-13Z" fill="#ce3a4d" stroke="#ce3a4d" stroke-width="1.51"/><path d="M-135,371L-50,553L6,414Z" fill="#e89675" stroke="#e89675" stroke-width="1.51"/><path d="M-136,1282L-34,1293L10,1171Z" fill="#9e5e7f" stroke="#9e5e7f" stroke-width="1.51"/><path d="M-140,1103L-136,1282L10,1171Z" fill="#9a6781" stroke="#9a6781" stroke-width="1.51"/><path d="M-43,709L-131,666L-35,804Z" fill="#da9971" stroke="#da9971" stroke-width="1.51"/><path d="M-159,69L-131,253L-32,108Z" fill="#db6350" stroke="#db6350" stroke-width="1.51"/><path d="M-159,69L-32,108L-27,-13Z" fill="#dd5249" stroke="#dd5249" stroke-width="1.51"/><path d="M-153,-103L-159,69L-27,-13Z" fill="#d24449" stroke="#d24449" stroke-width="1.51"/><path d="M-135,371L-186,595L-50,553Z" fill="#e1967c" stroke="#e1967c" stroke-width="1.51"/><path d="M-131,666L-168,886L-35,804Z" fill="#cc9272" stroke="#cc9272" stroke-width="1.51"/><path d="M-186,595L-131,666L-50,553Z" fill="#de987a" stroke="#de987a" stroke-width="1.51"/><path d="M-136,-261L-153,-103L-68,-168Z" fill="#bd2a4a" stroke="#bd2a4a" stroke-width="1.51"/><path d="M-140,1103L-191,1012L-136,1282Z" fill="#986b7b" stroke="#986b7b" stroke-width="1.51"/><path d="M-186,595L-168,886L-131,666Z" fill="#d0926e" stroke="#d0926e" stroke-width="1.51"/><path d="M-159,69L-135,371L-131,253Z" fill="#da7157" stroke="#da7157" stroke-width="1.51"/><path d="M-159,69L-186,595L-135,371Z" fill="#da8264" stroke="#da8264" stroke-width="1.51"/><path d="M-186,595L-159,69L-153,-103Z" fill="#d66752" stroke="#d66752" stroke-width="1.51"/><path d="M-186,595L-191,1012L-168,886Z" fill="#bd8971" stroke="#bd8971" stroke-width="1.51"/></svg>